<?xml version="1.0" standalone="no"?>
<!DOCTYPE svg PUBLIC "-//W3C//DTD SVG 20010904//EN"
 "http://www.w3.org/TR/2001/REC-SVG-20010904/DTD/svg10.dtd">
<svg version="1.0" xmlns="http://www.w3.org/2000/svg"
 width="444.000000pt" height="444.000000pt" viewBox="0 0 444.000000 444.000000"
 preserveAspectRatio="xMidYMid meet">
<metadata>
Created by potrace 1.11, written by Peter Selinger 2001-2013
</metadata>
<g transform="translate(0.000000,444.000000) scale(0.100000,-0.100000)"
fill="#000000" stroke="none">
<path d="M2040 3899 c-259 -30 -503 -119 -725 -266 -136 -91 -337 -292 -428
-428 -366 -554 -366 -1236 0 -1790 91 -136 292 -337 428 -428 554 -366 1236
-366 1790 0 136 91 337 292 428 428 366 554 366 1236 0 1790 -91 136 -292 337
-428 428 -322 212 -702 307 -1065 266z m-328 -670 c65 -13 152 -55 208 -100
46 -37 140 -154 140 -175 0 -7 -46 -40 -102 -74 -84 -51 -103 -59 -110 -46
-26 47 -79 104 -115 124 -125 69 -310 17 -364 -103 -56 -123 10 -215 218 -300
151 -62 255 -114 318 -159 l50 -36 11 84 c53 401 348 714 736 782 182 32 364
7 539 -73 l79 -36 0 -159 0 -159 -37 30 c-67 53 -156 101 -238 128 -67 22 -98
27 -195 27 -189 1 -301 -45 -436 -179 -132 -131 -194 -282 -194 -470 0 -204
86 -389 237 -507 111 -87 213 -125 358 -134 159 -10 293 32 431 137 36 27 67
49 70 49 2 0 4 -69 4 -153 l0 -154 -77 -36 c-135 -63 -216 -80 -393 -81 -170
-1 -243 13 -374 73 -127 58 -283 186 -352 290 l-28 42 -21 -58 c-59 -164 -198
-289 -370 -333 -243 -62 -483 22 -607 214 -37 57 -82 179 -90 241 l-3 29 97
22 c54 12 113 25 132 28 l34 7 11 -53 c23 -107 41 -145 90 -191 106 -99 275
-102 383 -7 105 92 127 256 51 371 -35 53 -119 107 -254 164 -237 99 -340 168
-407 273 -90 140 -79 343 26 474 45 57 130 123 192 150 104 45 243 60 352 37z"/>
</g>
</svg>
